<svg width="32" height="32" viewBox="0 0 32 32" fill="none" xmlns="http://www.w3.org/2000/svg">
<path d="M26 32H6C2.686 32 0 29.314 0 26V6C0 2.686 2.686 0 6 0H26C29.314 0 32 2.686 32 6V26C32 29.314 29.314 32 26 32Z" fill="#FFF9DD"/>
<path d="M16.193 22.333C18.68 22.333 22.153 22.393 23.417 19.866C23.893 18.9 24 17.784 24 16.732H23.999C23.999 15.35 23.616 14.034 22.699 12.965C22.869 12.454 22.956 11.916 22.956 11.375C22.956 10.666 22.796 10.31 22.47 9.66602C20.977 9.66602 20.01 9.94601 18.877 10.827C18.004 10.619 17.097 10.524 16.197 10.524C15.2 10.524 14.207 10.627 13.24 10.854C12.09 9.96302 11.123 9.66602 9.613 9.66602C9.29 10.309 9.127 10.665 9.127 11.375C9.127 11.915 9.21 12.463 9.384 12.984C8.464 14.044 8 15.35 8 16.732C8 17.784 8.187 18.909 8.673 19.866C9.987 22.422 13.667 22.333 16.193 22.333V22.333ZM12.667 15.673C13.301 15.673 13.91 15.785 14.534 15.871C16.813 16.218 18.01 15.673 19.407 15.673C20.966 15.673 21.857 16.95 21.857 18.398C21.857 21.297 19.18 21.739 16.837 21.739H15.231C12.898 21.739 10.218 21.294 10.218 18.398C10.217 16.95 11.107 15.673 12.667 15.673V15.673Z" fill="#FFD200"/>
<path d="M19.103 20.215C19.963 20.215 20.326 19.087 20.326 18.397C20.326 17.707 19.963 16.579 19.103 16.579C18.243 16.579 17.88 17.707 17.88 18.397C17.88 19.087 18.244 20.215 19.103 20.215Z" fill="#FFE777"/>
<path d="M12.98 20.215C13.84 20.215 14.203 19.087 14.203 18.397C14.203 17.707 13.84 16.58 12.98 16.58C12.12 16.58 11.757 17.708 11.757 18.398C11.757 19.088 12.12 20.215 12.98 20.215Z" fill="#FFE777"/>
</svg>
