<svg width="32" height="32" viewBox="0 0 32 32" fill="none" xmlns="http://www.w3.org/2000/svg">
<path d="M27.029 32H24.6686C24.1673 32 23.7609 31.5936 23.7609 31.0923C23.7609 30.591 24.1673 30.1846 24.6686 30.1846H27.029C28.7689 30.1846 30.1846 28.769 30.1846 27.029V4.971C30.1846 3.23106 28.769 1.81537 27.029 1.81537H13.3979C12.8966 1.81537 12.4902 1.409 12.4902 0.907687C12.4902 0.406375 12.8966 0 13.3979 0H27.029C29.77 0 32 2.22994 32 4.971V27.029C32 29.7701 29.77 32 27.029 32Z" fill="#FFC61B"/>
<path d="M18.1058 32H4.971C2.22994 32 0 29.7701 0 27.029V4.971C0 2.22994 2.22994 0 4.971 0H7.01375C7.51506 0 7.92144 0.406375 7.92144 0.907687C7.92144 1.409 7.51506 1.81537 7.01375 1.81537H4.971C3.23106 1.81537 1.81537 3.231 1.81537 4.971V27.029C1.81537 28.7689 3.231 30.1846 4.971 30.1846H18.1058C18.6071 30.1846 19.0135 30.591 19.0135 31.0923C19.0135 31.5936 18.6071 32 18.1058 32Z" fill="#FFC61B"/>
<path d="M24.8184 7.54327L6.31274 14.7548C5.71318 14.9885 5.74968 15.8486 6.36674 16.0306L10.5938 17.2787L11.9077 22.1983C12.0909 22.7801 12.828 22.9563 13.2547 22.5206L15.8561 20.038L21.3732 24.3293C21.957 24.7578 22.7884 24.4393 22.9366 23.7307L26.0961 8.62509C26.2508 7.88509 25.5229 7.26871 24.8184 7.54327Z" fill="#FEE187"/>
<path d="M21.9593 25.4308H21.9592C21.554 25.4308 21.1656 25.303 20.8361 25.0612C20.8293 25.0562 20.8226 25.0511 20.816 25.0459L15.9167 21.235L13.8904 23.1688C13.5664 23.493 13.1375 23.6713 12.6807 23.6713C11.9267 23.6713 11.2681 23.189 11.042 22.4712C11.038 22.4583 11.0342 22.4455 11.0308 22.4326L9.84838 18.005L6.10976 16.9012C5.45069 16.7067 5.00582 16.1372 4.97676 15.4506C4.94763 14.7638 5.34276 14.1588 5.98332 13.9092L24.4889 6.69759C24.7078 6.61228 24.9359 6.56909 25.167 6.56909C25.7273 6.56909 26.2533 6.82097 26.6101 7.26009C26.9633 7.69478 27.0998 8.26009 26.9846 8.81097L23.8249 23.9166C23.6415 24.794 22.8569 25.4308 21.9593 25.4308ZM21.9158 23.6015C21.9304 23.6112 21.9438 23.6154 21.9593 23.6154C21.9668 23.6154 22.0337 23.6135 22.0481 23.5449L25.2076 8.43928C25.2112 8.42228 25.2099 8.41547 25.2012 8.40478C25.1918 8.39315 25.1769 8.38434 25.1669 8.38434C25.1624 8.38434 25.1557 8.38597 25.1481 8.38897L7.27744 15.353L10.8508 16.4082C11.1541 16.4977 11.389 16.7389 11.4707 17.0445L12.7314 21.7653L15.2294 19.3814C15.5547 19.0709 16.0584 19.0455 16.4133 19.3216L21.9158 23.6015Z" fill="#FFC61B"/>
<path d="M13.7298 22.513C13.7583 22.6053 14.7983 21.3053 14.8093 21.2091L14.3429 18.9256C14.2814 18.6248 14.3904 18.3146 14.6265 18.1184L23.1764 11.0138C23.3821 10.8318 23.1431 10.5107 22.9098 10.6553L12.8556 16.7875C12.6173 16.9329 12.4943 17.2109 12.5469 17.4851L13.7298 22.513Z" fill="#FFC61B"/>
</svg>
