<svg width="32" height="32" viewBox="0 0 32 32" fill="none" xmlns="http://www.w3.org/2000/svg">
<g clip-path="url(#clip0)">
<path d="M27.029 32.0009H24.6685C24.1673 32.0009 23.7608 31.5945 23.7608 31.0933C23.7608 30.592 24.1673 30.1856 24.6685 30.1856H27.029C28.7689 30.1856 30.1846 28.77 30.1846 27.03V4.97197C30.1846 3.23204 28.769 1.81635 27.029 1.81635H13.3979C12.8966 1.81635 12.4902 1.40991 12.4902 0.908663C12.4902 0.407414 12.8966 0.000976562 13.3979 0.000976562H27.029C29.77 0.000976562 32 2.23091 32 4.97197V27.0301C31.9999 29.771 29.77 32.0009 27.029 32.0009Z" fill="#FFC61B"/>
<path d="M18.1058 32.0009H4.97099C2.22993 32.0009 0 29.771 0 27.03V4.97197C0 2.23091 2.22993 0.000976562 4.97099 0.000976562H7.01374C7.51505 0.000976562 7.92142 0.407414 7.92142 0.908663C7.92142 1.40991 7.51505 1.81635 7.01374 1.81635H4.97099C3.23106 1.81635 1.81537 3.23197 1.81537 4.97197V27.0301C1.81537 28.77 3.23099 30.1857 4.97099 30.1857H18.1058C18.6071 30.1857 19.0135 30.5921 19.0135 31.0934C19.0135 31.5946 18.6071 32.0009 18.1058 32.0009Z" fill="#FFC61B"/>
<path d="M25.5993 22.285C24.8622 22.285 23.9607 22.2643 23.5758 22.2556C23.4598 22.2529 23.3843 22.2512 23.3637 22.2511C22.7469 22.2484 22.2158 22.0369 21.7852 21.6226C21.4358 21.2864 21.0976 20.9188 20.7705 20.5632C20.5853 20.3621 20.394 20.154 20.201 19.9519C20.0063 19.7483 19.8231 19.5819 19.6405 19.4432C19.4035 19.2626 19.151 19.1669 18.911 19.1669C18.514 19.1669 18.187 19.4165 18.014 19.8518C17.8152 20.3537 17.6626 21.5794 17.657 21.6551C17.6325 21.9992 17.4357 22.1762 17.0553 22.1971C16.8059 22.2106 16.561 22.2176 16.3278 22.2176C14.8249 22.2176 13.556 21.9292 12.4489 21.3361C11.3292 20.7364 10.3253 19.8581 9.37993 18.6511C8.18549 17.1265 7.10987 15.3591 5.89231 12.9208C5.83387 12.8038 4.89937 10.8114 4.80969 10.5866C4.78419 10.482 4.77031 10.3111 4.85887 10.2537C4.92631 10.2473 5.13162 10.2365 5.74444 10.2365C6.76631 10.2365 8.27012 10.2674 8.35331 10.2703C8.7743 10.2931 9.00374 10.4588 9.16699 10.8613C9.88024 12.6225 10.7295 14.1078 11.7633 15.4018C11.92 15.5989 12.1247 15.7867 12.355 15.9445C12.5167 16.0554 12.6902 16.1141 12.8565 16.1141H12.8565C13.1732 16.1141 13.434 15.9118 13.5544 15.5725C13.6926 15.1866 13.8038 14.4764 13.8106 14.0997C13.8287 13.1756 13.8082 12.573 13.7584 11.648C13.7119 10.7928 13.3051 10.2818 12.5165 10.0902C12.7564 9.83077 13.0832 9.76434 13.5825 9.73765C13.862 9.72259 14.1677 9.71521 14.5173 9.71521C14.8422 9.71521 15.1745 9.7214 15.4958 9.72746C15.7215 9.73171 15.9472 9.7359 16.1727 9.73815C16.545 9.74152 16.8675 9.77409 17.1596 9.8379C17.3372 9.87659 17.5813 9.9774 17.6535 10.4068C17.6903 10.6248 17.7067 10.8361 17.702 11.0356C17.6927 11.4447 17.6789 11.861 17.6657 12.2636C17.6465 12.8424 17.6267 13.441 17.6199 14.0315C17.6144 14.4898 17.6534 14.9123 17.7357 15.2871C17.8444 15.7794 18.1397 16.0731 18.5257 16.0731C18.6879 16.0731 18.9367 16.0157 19.2005 15.7422C19.6185 15.3081 20.0221 14.8031 20.5091 14.1048C21.1445 13.1934 21.6933 12.1303 22.2363 10.7591C22.4185 10.3003 22.4652 10.2681 22.9505 10.267C23.5873 10.2654 24.224 10.2645 24.8607 10.2645C25.4195 10.2645 25.9783 10.2653 26.5371 10.267C26.7502 10.268 26.9222 10.29 27.0629 10.3346C27.1592 10.3653 27.2425 10.41 27.1963 10.6134C27.0262 11.3681 26.59 12.0273 26.1946 12.5858C25.7141 13.264 25.2087 13.9444 24.72 14.6025C24.4625 14.9489 24.2052 15.2955 23.95 15.6434C23.8564 15.7711 23.7665 15.9134 23.6674 16.0913C23.305 16.7469 23.3625 17.2068 23.8717 17.7326C24.1424 18.0118 24.4237 18.2864 24.6958 18.5518C25.0798 18.9266 25.4771 19.3142 25.8415 19.7128C26.3022 20.2178 26.7078 20.7453 27.0468 21.2804C27.2037 21.5282 27.2486 21.7682 27.1698 21.9386C27.0938 22.1031 26.8989 22.2155 26.6207 22.255C26.5406 22.266 26.301 22.285 25.5993 22.285Z" fill="#FEE187"/>
<path d="M25.5993 23.1927C24.8559 23.1927 23.9487 23.172 23.5613 23.1632C23.4509 23.1606 23.3813 23.159 23.3585 23.1588C22.5137 23.155 21.7517 22.85 21.1558 22.2766C20.785 21.9197 20.438 21.5425 20.1025 21.1777L20.0909 21.165C19.9124 20.9712 19.7279 20.7707 19.5447 20.5789C19.3837 20.4105 19.2354 20.2753 19.0912 20.1657C19.0077 20.1021 18.9465 20.0806 18.9208 20.0758C18.9082 20.0895 18.8833 20.1221 18.8575 20.1871C18.7344 20.4981 18.5906 21.4483 18.5616 21.7303C18.5012 22.5307 17.9435 23.0575 17.1049 23.1034C16.8384 23.1178 16.5771 23.1252 16.3277 23.1252C14.6714 23.1252 13.2624 22.8017 12.0201 22.1362C10.7872 21.4758 9.6898 20.5189 8.66524 19.2108C7.43193 17.6366 6.32618 15.8217 5.08012 13.3264C5.02718 13.2204 4.0725 11.1888 3.9665 10.9229C3.95068 10.8833 3.93775 10.8427 3.92762 10.8013C3.79462 10.255 3.962 9.75342 4.36456 9.49224C4.48737 9.41261 4.6275 9.3638 4.77318 9.35011C4.82893 9.34474 4.9985 9.3288 5.74424 9.3288C6.79081 9.3288 8.2958 9.36011 8.38499 9.36318C8.39068 9.36343 8.39643 9.36361 8.40212 9.36399C9.17337 9.40574 9.71361 9.79467 10.0078 10.5201C10.6879 12.1994 11.494 13.6107 12.4721 14.8353C12.5462 14.9285 12.6412 15.0219 12.7476 15.1068C12.8299 14.7927 12.8984 14.3227 12.9027 14.0833C12.9204 13.186 12.9003 12.5989 12.8517 11.6969C12.824 11.1877 12.6523 11.0575 12.3019 10.9724C11.9892 10.8964 11.7402 10.6605 11.6472 10.3526C11.5543 10.0446 11.6314 9.71042 11.8497 9.47418C12.3223 8.96311 12.9384 8.86336 13.5338 8.83155C13.8297 8.81555 14.1515 8.80774 14.5171 8.80774C14.8524 8.80774 15.1881 8.81399 15.5126 8.82018C15.7358 8.82436 15.9589 8.82855 16.1819 8.8308C16.6159 8.83468 16.9994 8.87418 17.353 8.95136C17.9966 9.09143 18.4325 9.56711 18.5485 10.2564C18.5949 10.5305 18.6153 10.8001 18.6093 11.0571C18.6001 11.4631 18.5866 11.8749 18.5734 12.2732L18.5726 12.2938C18.5535 12.8729 18.5339 13.464 18.5272 14.0422C18.5229 14.4114 18.5514 14.748 18.6119 15.0441C18.9727 14.6608 19.3315 14.2065 19.7644 13.5857C20.3584 12.7337 20.8755 11.7293 21.3921 10.4251C21.7118 9.62005 22.0899 9.3613 22.9483 9.35949C24.1452 9.35649 25.3427 9.35568 26.5397 9.35949C26.8473 9.36074 27.108 9.3968 27.3374 9.46968C27.9226 9.65624 28.2212 10.1964 28.0813 10.8142C27.8747 11.7312 27.3813 12.4803 26.935 13.1106C26.45 13.7953 25.9429 14.4779 25.4527 15.1381C25.1919 15.489 24.9357 15.8341 24.6814 16.1806C24.6107 16.2771 24.5401 16.3893 24.4597 16.5336C24.2831 16.8532 24.3058 16.8767 24.5233 17.1013C24.7856 17.3717 25.062 17.6415 25.3293 17.9023C25.7248 18.2884 26.1303 18.6842 26.5111 19.1006C27.0082 19.6452 27.446 20.215 27.8133 20.7949C28.1384 21.3083 28.2041 21.864 27.9936 22.3195C27.8724 22.582 27.5493 23.04 26.7482 23.1538C26.6278 23.1704 26.3792 23.1927 25.5993 23.1927ZM18.911 18.2591C19.3517 18.2591 19.7942 18.419 20.1909 18.7213C20.4111 18.8887 20.6294 19.0863 20.8572 19.3247C21.052 19.5287 21.2424 19.7353 21.4264 19.9354L21.4383 19.9484C21.7558 20.2936 22.0837 20.65 22.4146 20.9686C22.6749 21.2191 22.9867 21.3417 23.3677 21.3435C23.3898 21.3435 23.4714 21.3453 23.5965 21.3482C23.9838 21.357 24.8764 21.3773 25.5991 21.3773C25.7667 21.3773 25.9047 21.3762 26.0177 21.3745C25.7662 21.0178 25.4824 20.6661 25.1707 20.3247C24.8253 19.947 24.4388 19.5695 24.0648 19.2045C23.7853 18.9318 23.4998 18.6533 23.2197 18.3643C22.4286 17.5476 22.3152 16.6605 22.8727 15.652C22.9921 15.4379 23.1012 15.2655 23.2175 15.1067C23.4742 14.7569 23.7326 14.409 23.991 14.061C24.4797 13.4031 24.9805 12.7287 25.4537 12.061C25.6473 11.7875 25.8518 11.488 26.0175 11.1732C25.0282 11.171 24.0379 11.172 23.0478 11.1743C22.4887 12.5734 21.9174 13.6715 21.2535 14.6238C20.7378 15.3632 20.3063 15.9023 19.8542 16.3717C19.3687 16.8752 18.8638 16.9808 18.5255 16.9808C17.7082 16.9808 17.0502 16.3928 16.8491 15.4829C16.7518 15.0394 16.7058 14.5479 16.712 14.0208C16.7189 13.4232 16.7387 12.8223 16.758 12.2411L16.7589 12.2132C16.7719 11.8195 16.7854 11.4126 16.7944 11.0152C16.7967 10.9122 16.7911 10.8035 16.7774 10.6903C16.5938 10.6625 16.3917 10.648 16.1642 10.646C15.935 10.6436 15.7067 10.6394 15.4784 10.6351C15.1419 10.6289 14.791 10.622 14.4561 10.6231C14.5744 10.9125 14.6448 11.239 14.6644 11.5988C14.7154 12.5464 14.7364 13.1649 14.7177 14.1175C14.7095 14.5735 14.5832 15.3909 14.4085 15.8787C14.1587 16.5827 13.5635 17.0217 12.8562 17.0217C12.5057 17.0217 12.1547 16.9081 11.8412 16.693C11.5376 16.485 11.2646 16.2337 11.0523 15.9666C9.96443 14.6047 9.07199 13.0455 8.3253 11.202C8.32155 11.1929 8.31805 11.1847 8.31487 11.1774C8.31412 11.1774 8.3133 11.1772 8.31262 11.1772C8.17437 11.1734 7.00181 11.1499 6.06143 11.1451C6.33799 11.7404 6.65887 12.4239 6.70462 12.5165C7.89343 14.8972 8.93893 16.6168 10.0941 18.0913C10.9602 19.1973 11.8705 19.9968 12.8771 20.536C13.8492 21.0568 14.9778 21.3099 16.3274 21.3099C16.4757 21.3099 16.6295 21.3069 16.7868 21.3008C16.8462 20.8543 16.9783 20.0006 17.1697 19.5176C17.4834 18.7292 18.1341 18.2591 18.911 18.2591Z" fill="#FFC61B"/>
</g>
<defs>
<clipPath id="clip0">
<rect width="32" height="32" fill="white"/>
</clipPath>
</defs>
</svg>
